<svg width="24" height="24" viewBox="0 0 25 24" fill="none" xmlns="http://www.w3.org/2000/svg">
<path fill-rule="evenodd" clip-rule="evenodd" d="M11.5 17H13.5V16H14.5C15.05 16 15.5 15.55 15.5 15V12C15.5 11.45 15.05 11 14.5 11H11.5V10H15.5V8H13.5V7H11.5V8H10.5C9.95 8 9.5 8.45 9.5 9V12C9.5 12.55 9.95 13 10.5 13H13.5V14H9.5V16H11.5V17ZM20.5 4H4.5C3.39 4 2.51 4.89 2.51 6L2.5 18C2.5 19.11 3.39 20 4.5 20H20.5C21.61 20 22.5 19.11 22.5 18V6C22.5 4.89 21.61 4 20.5 4ZM20.5 18H4.5V6H20.5V18Z" fill="#323232"/>
</svg>
