<?xml version="1.0" encoding="UTF-8"?>
<svg width="24px" height="24px" viewBox="0 0 24 24" version="1.1" xmlns="http://www.w3.org/2000/svg" xmlns:xlink="http://www.w3.org/1999/xlink">
    <!-- Generator: Sketch 55.2 (78181) - https://sketchapp.com -->
    <title>Icons/Factsheet</title>
    <desc>Created with Sketch.</desc>
    <defs>
        <path d="M9,0 L16,7 L16,18 C16,19.1045695 15.1045695,20 14,20 L2,20 C0.8954305,20 0,19.1045695 0,18 L0,2 C0,0.8954305 0.8954305,0 2,0 L9,0 Z M9,2 L2,2 L2,18 L14,18 L14,7 L9,7 L9,2 Z M12,16 L4,16 L4,14 L12,14 L12,16 Z M12,12 L4,12 L4,10 L12,10 L12,12 Z" id="path-1"></path>
    </defs>
    <g id="Icons/Factsheet" stroke="none" stroke-width="1" fill="none" fill-rule="evenodd">
        <polygon id="Path" points="0 0 24 0 24 24 0 24"></polygon>
        <g id="Icon" transform="translate(4.000000, 2.000000)">
            <mask id="mask-2" fill="white">
                <use xlink:href="#path-1"></use>
            </mask>
            <use id="Combined-Shape" fill="#000000" fill-rule="nonzero" xlink:href="#path-1"></use>
        </g>
    </g>
</svg>