<?xml version="1.0" encoding="UTF-8"?>
<svg width="24px" height="24px" viewBox="0 0 24 24" version="1.1" xmlns="http://www.w3.org/2000/svg" xmlns:xlink="http://www.w3.org/1999/xlink">
    <!-- Generator: Sketch 55.2 (78181) - https://sketchapp.com -->
    <title>Icons/i</title>
    <desc>Created with Sketch.</desc>
    <defs>
        <path d="M0,10 C0,4.48 4.48,0 10,0 C15.52,0 20,4.48 20,10 C20,15.52 15.52,20 10,20 C4.48,20 0,15.52 0,10 Z M10,2 C5.5845695,2 2,5.5845695 2,10 C2,14.4154305 5.5845695,18 10,18 C14.4154305,18 18,14.4154305 18,10 C18,5.5845695 14.4154305,2 10,2 Z M9,8 L11,8 L11,16 L9,16 L9,8 Z M11,6 L9,6 L9,4 L11,4 L11,6 Z" id="path-1"></path>
    </defs>
    <g id="Icons/i" stroke="none" stroke-width="1" fill="none" fill-rule="evenodd">
        <polygon id="Path" points="0 0 24 0 24 24 0 24"></polygon>
        <g id="Icon" transform="translate(2.000000, 2.000000)">
            <mask id="mask-2" fill="white">
                <use xlink:href="#path-1"></use>
            </mask>
            <use id="Combined-Shape" fill="#000000" fill-rule="nonzero" xlink:href="#path-1"></use>
        </g>
    </g>
</svg>