<?xml version="1.0" encoding="UTF-8"?>
<svg width="24px" height="24px" viewBox="0 0 24 24" version="1.1" xmlns="http://www.w3.org/2000/svg" xmlns:xlink="http://www.w3.org/1999/xlink">
    <!-- Generator: Sketch 55.2 (78181) - https://sketchapp.com -->
    <title>Icons/Phone</title>
    <desc>Created with Sketch.</desc>
    <defs>
        <path d="M11.303081,14.048425 C10.7168475,13.4166035 10.041575,13.1594586 9.22953845,13.5782985 L8.41607725,14.012097 C7.96518326,14.2428864 7.96090938,14.3753766 7.79422819,14.6353707 C7.36042971,15.3127802 6.77419629,15.1582083 6.49853124,14.8647354 C5.32748903,13.6181881 3.8715217,10.8152373 3.85798776,10.7888817 C3.36862888,9.83865644 3.07159445,8.84213086 2.89565319,7.85344072 C2.82869579,7.45525787 3.03312956,6.89181846 3.83875531,6.93242029 C4.14647443,6.94809117 4.25688291,7.02359633 4.70706459,6.79138236 L5.53334742,6.38393945 C6.34538399,5.96652416 6.53058531,5.26988226 6.356781,4.42365467 L5.41795275,0.758093098 C5.0753303,0.0778343912 4.24548591,-0.194981404 3.56593952,0.148353357 L1.80439001,1.03518277 C1.49952014,1.18975464 1.21459502,1.50673383 1.03010601,1.86858873 C-0.457203077,4.38091591 -0.369588604,8.34066266 1.52587571,12.0290182 C1.59425774,12.1664946 4.49764463,19.2312134 10.2773505,19.8687329 C10.6783826,19.9299918 11.1000718,19.8836915 11.4035171,19.7255581 L13.1515326,18.8109482 C13.8253805,18.4576411 14.0867993,17.6270844 13.7334922,16.9510996 L11.303081,14.048425" id="path-1"></path>
    </defs>
    <g id="Icons/Phone" stroke="none" stroke-width="1" fill="none" fill-rule="evenodd">
        <polygon id="Path" points="0 0 24 0 24 24 0 24"></polygon>
        <g id="Icon" transform="translate(5.000000, 2.000000)">
            <mask id="mask-2" fill="white">
                <use xlink:href="#path-1"></use>
            </mask>
            <use id="Fill-1" fill="#000000" fill-rule="nonzero" xlink:href="#path-1"></use>
        </g>
    </g>
</svg>