<?xml version="1.0" encoding="UTF-8"?>
<svg width="24px" height="24px" viewBox="0 0 24 24" version="1.1" xmlns="http://www.w3.org/2000/svg" xmlns:xlink="http://www.w3.org/1999/xlink">
    <!-- Generator: Sketch 55.2 (78181) - https://sketchapp.com -->
    <title>Icons/?</title>
    <desc>Created with Sketch.</desc>
    <defs>
        <path d="M0,10 C0,4.48 4.48,0 10,0 C15.52,0 20,4.48 20,10 C20,15.52 15.52,20 10,20 C4.48,20 0,15.52 0,10 Z M10,2 C5.5845695,2 2,5.5845695 2,10 C2,14.4154305 5.5845695,18 10,18 C14.4154305,18 18,14.4154305 18,10 C18,5.5845695 14.4154305,2 10,2 Z M11,16 L9,16 L9,14 L11,14 L11,16 Z M10,4 C12.125143,4 13.8464126,5.62833599 13.8464126,7.63873965 C13.8464126,9.91295194 10.9616032,10.1403732 10.9616032,12.1871642 L9.03839684,12.1871642 C9.03839684,9.23068825 11.9232063,9.45810948 11.9232063,7.63873965 C11.9232063,6.63808625 11.0577635,5.81936983 10,5.81936983 C8.94223653,5.81936983 8.07679368,6.63808625 8.07679368,7.63873965 L6.15358737,7.63873965 C6.15358737,5.62833599 7.87485702,4 10,4 Z" id="path-1"></path>
    </defs>
    <g id="Icons/?" stroke="none" stroke-width="1" fill="none" fill-rule="evenodd">
        <polygon id="Path" points="0 0 24 0 24 24 0 24"></polygon>
        <g id="Icon" transform="translate(2.000000, 2.000000)">
            <mask id="mask-2" fill="white">
                <use xlink:href="#path-1"></use>
            </mask>
            <use id="Combined-Shape" fill="#000000" fill-rule="nonzero" xlink:href="#path-1"></use>
        </g>
    </g>
</svg>