<?xml version="1.0" encoding="UTF-8"?>
<svg width="24px" height="24px" viewBox="0 0 24 24" version="1.1" xmlns="http://www.w3.org/2000/svg" xmlns:xlink="http://www.w3.org/1999/xlink">
    <!-- Generator: Sketch 58 (84663) - https://sketch.com -->
    <title>Artboard</title>
    <desc>Created with Sketch.</desc>
    <g id="Artboard" stroke="none" stroke-width="1" fill="none" fill-rule="evenodd">
        <g id="Quote">
            <polygon id="Path" points="0 0 24 0 24 24 0 24"></polygon>
            <path d="M10.454,10.18 L10.454,10.324 L10.304,10.474 L9.404,10.474 L9.254,10.324 L9.254,10.12 C9.254,9.40023799 8.77076348,8.914 7.988,8.914 C7.18610258,8.914 6.71,9.32838558 6.71,9.952 C6.71,10.4027027 6.9807509,10.7771454 7.42261593,10.9539269 L8.69411894,11.493717 C9.98177734,12.0349068 10.586,12.6208196 10.586,13.828 C10.586,15.1316215 9.76978337,16.0525638 8.498,16.2294461 L8.498,17.296 L8.348,17.446 L7.604,17.446 L7.454,17.296 L7.454,16.2270759 C6.18985953,16.0309747 5.39,15.1666487 5.39,13.936 L5.39,13.744 L5.54,13.594 L6.428,13.594 L6.578,13.744 L6.578,13.996 C6.578,14.7138894 7.1110043,15.19 7.988,15.19 C8.86708085,15.19 9.398,14.6890763 9.398,13.936 C9.398,13.2789306 9.08819568,12.9691263 8.26545608,12.6101036 L7.16188106,12.142283 C6.11719551,11.7032123 5.522,11.0324364 5.522,10.024 C5.522,8.92000496 6.28916092,8.08598424 7.454,7.89029882 L7.454,6.82 L7.604,6.67 L8.348,6.67 L8.498,6.82 L8.498,7.88909626 C9.68321317,8.0783301 10.454,8.95667171 10.454,10.18 Z" id="$" fill="#000000" fill-rule="nonzero"></path>
            <path d="M16.6410256,15 C16.8392817,15 17,14.5522847 17,14 C17,13.4477153 16.8392817,13 16.6410256,13 L13.3589744,13 C13.1607183,13 13,13.4477153 13,14 C13,14.5522847 13.1607183,15 13.3589744,15 L16.6410256,15 Z" id="Stroke-3" fill="#000000" fill-rule="nonzero"></path>
            <path d="M13.3559322,9 C13.1593563,9 13,9.44771525 13,10 C13,10.5522847 13.1593563,11 13.3559322,11 L18.6440678,11 C18.8406437,11 19,10.5522847 19,10 C19,9.44771525 18.8406437,9 18.6440678,9 L13.3559322,9 Z" id="Stroke-5" fill="#000000" fill-rule="nonzero"></path>
            <path d="M4,4 C2.8954305,4 2,4.8954305 2,6 L2,18 C2,19.1045695 2.8954305,20 4,20 L20,20 C21.1045695,20 22,19.1045695 22,18 L22,6 C22,4.8954305 21.1045695,4 20,4 L4,4 Z M4,2 L20,2 C22.209139,2 24,3.790861 24,6 L24,18 C24,20.209139 22.209139,22 20,22 L4,22 C1.790861,22 0,20.209139 0,18 L0,6 C0,3.790861 1.790861,2 4,2 Z" id="Rectangle" fill="#000000" fill-rule="nonzero"></path>
        </g>
    </g>
</svg>