<?xml version="1.0" encoding="UTF-8"?>
<svg width="24px" height="24px" viewBox="0 0 24 24" version="1.1" xmlns="http://www.w3.org/2000/svg" xmlns:xlink="http://www.w3.org/1999/xlink">
    <!-- Generator: Sketch 55.2 (78181) - https://sketchapp.com -->
    <title>Icons/Quote</title>
    <desc>Created with Sketch.</desc>
    <defs>
        <path d="M2,0 L9,0 L16,7 L16,18 C16,19.1045695 15.1045695,20 14,20 L2,20 C0.8954305,20 0,19.1045695 0,18 L0,2 C0,0.8954305 0.8954305,0 2,0 Z M8.17157288,2 L2,2 L2,18 L14,18 L14,7.82842712 L8.17157288,2 Z M6.99472166,15.0073798 L5.00931165,15.0073798 L5.00931165,13.0073798 L9.00359996,13.0074983 C9.49254068,13.0150274 9.54059579,12.9702954 9.54059579,12.5623389 C9.54059579,12.1283504 9.45281035,12.0409537 8.98820312,12.0168211 L7.05094373,12.0162573 C5.493346,12.0685827 4.53052479,11.1324561 4.53052479,9.57120032 C4.53052479,8.04824095 5.4356113,7.08546596 7.00131058,6.99895485 L7.00131058,5.52834718 L9.00106459,5.52834718 L9.00106459,6.99809948 L11.0012732,6.99809948 L11.0012732,8.99809948 L7.06944332,8.99674269 C6.61047751,9.02067548 6.53052479,9.10526651 6.53052479,9.57120032 C6.53052479,10.0040369 6.55893308,10.0316575 7.01736903,10.0168211 L9.03746846,10.0180354 C10.5934528,10.0947847 11.5405958,11.0377332 11.5405958,12.5623389 C11.5405958,14.1102548 10.557184,15.0283783 8.99644181,15.0074986 L8.99644181,16.5396691 L6.99472166,16.5396691 L6.99472166,15.0073798 Z" id="path-1"></path>
    </defs>
    <g id="Icons/Quote" stroke="none" stroke-width="1" fill="none" fill-rule="evenodd">
        <polygon id="Path" points="0 0 24 0 24 24 0 24"></polygon>
        <g id="Icon" transform="translate(4.000000, 2.000000)">
            <mask id="mask-2" fill="white">
                <use xlink:href="#path-1"></use>
            </mask>
            <use id="Combined-Shape" fill="#000000" fill-rule="nonzero" xlink:href="#path-1"></use>
        </g>
    </g>
</svg>