<?xml version="1.0" encoding="UTF-8"?>
<svg width="24px" height="24px" viewBox="0 0 24 24" version="1.1" xmlns="http://www.w3.org/2000/svg" xmlns:xlink="http://www.w3.org/1999/xlink">
    <!-- Generator: Sketch 64 (93537) - https://sketch.com -->
    <title>Artboard</title>
    <desc>Created with Sketch.</desc>
    <defs>
        <path d="M19.8416848,17.4831766 C19.8582702,17.5 19.8748556,17.5 19.8916295,17.5 C19.9249887,17.5 19.9417626,17.5 19.9751219,17.466162 C20.0082927,17.4323241 20.0082927,17.3648393 19.9751219,17.3310014 C17.9914699,15.2173715 15.5579389,13.5097972 12.8409483,12.4109238 C12.0075318,12.0727354 12.0075318,12.0727354 12.0075318,12.0727354 C11.5740496,11.886531 11.2907785,11.4640345 11.2907785,10.9736708 C11.3407231,9.16458263 15.5411651,9.53660901 15.9746472,8.67421898 C16.0413657,8.52204375 16.0413657,8.52204375 16.0413657,8.52204375 C15.1745899,7.7611676 14.1576032,7.20331921 13.0243301,6.88214535 C13.0077447,6.9328067 12.9741969,7.13564329 13.2075234,7.52449306 C13.4578122,7.9303574 12.9408376,8.58971967 12.1741397,7.87969605 C12.1074211,7.82884352 12.1074211,7.82884352 12.1074211,7.82884352 C6.54019119,2.65507686 3.97341154,6.07041667 0.189677896,0.0514657237 C0.156318618,0.000613196924 0.106373937,-0.0162101954 0.0562407858,0.0176277641 C0.00629610489,0.0514657237 -0.0104777691,0.102127076 0.00629610489,0.152788427 C2.9899725,7.43999375 9.09057392,5.90141805 9.80732721,12.6982597 C9.84068649,12.9519488 10.0240683,13.1547854 10.2739802,13.1886234 C13.6575909,13.7296484 16.9580862,15.1498868 19.8250994,17.4831766 L19.8416848,17.4831766" id="path-1"></path>
    </defs>
    <g id="Artboard" stroke="none" stroke-width="1" fill="none" fill-rule="evenodd">
        <g id="Icons/Roo">
            <polygon id="Path" points="0 0 24 0 24 24 0 24"></polygon>
            <g id="Icon" transform="translate(2.000000, 3.000000)">
                <mask id="mask-2" fill="white">
                    <use xlink:href="#path-1"></use>
                </mask>
                <use id="Fill-13" fill="#000000" fill-rule="nonzero" xlink:href="#path-1"></use>
            </g>
        </g>
    </g>
</svg>