<?xml version="1.0" encoding="UTF-8"?>
<svg width="24px" height="24px" viewBox="0 0 24 24" version="1.1" xmlns="http://www.w3.org/2000/svg" xmlns:xlink="http://www.w3.org/1999/xlink">
    <!-- Generator: Sketch 55.2 (78181) - https://sketchapp.com -->
    <title>Field/Search</title>
    <desc>Created with Sketch.</desc>
    <defs>
        <path d="M15.7455087,14.4353483 L11.0440662,9.64055625 L10.9565329,9.73536244 C12.7996174,7.10001274 12.3277871,3.45943243 9.8766176,1.40287723 C7.42544806,-0.653677964 3.83150151,-0.424324117 1.65086678,1.92781759 C-0.52976796,4.2799593 -0.55285971,7.9521239 1.59801486,10.3325923 C3.74888942,12.7130607 7.33965601,12.9894002 9.81648745,10.9650725 L9.79928263,10.9835413 L14.46541,15.7407802 C14.8207156,16.0907371 15.3854917,16.0857322 15.7347801,15.7295314 C16.0840685,15.3733306 16.0889762,14.7973776 15.7458106,14.4350404 L15.7455087,14.4353483 Z M6.05014179,10.7788461 C3.54962655,10.7788461 1.52255845,8.71166226 1.52255845,6.16166178 C1.52255845,3.61166129 3.54962655,1.54447746 6.05014179,1.54447746 C8.55065702,1.54447746 10.5777251,3.61166129 10.5777251,6.16166178 C10.5748973,8.71046682 8.54948477,10.7759623 6.05014179,10.7788461 L6.05014179,10.7788461 Z" id="path-1"></path>
    </defs>
    <g id="Field/Search" stroke="none" stroke-width="1" fill="none" fill-rule="evenodd">
        <polygon id="Path" points="0 0 24 0 24 24 0 24"></polygon>
        <g id="Icon" transform="translate(4.000000, 4.000000)">
            <mask id="mask-2" fill="white">
                <use xlink:href="#path-1"></use>
            </mask>
            <use id="Shape" fill="#000000" fill-rule="nonzero" xlink:href="#path-1"></use>
        </g>
    </g>
</svg>