<svg width="24" height="24" xmlns="http://www.w3.org/2000/svg" xmlns:xlink="http://www.w3.org/1999/xlink">
    <defs>
        <path d="M11.99 2C17.52 2 22 6.48 22 12s-4.48 10-10.01 10C6.47 22 2 17.52 2 12S6.47 2 11.99 2zM12 4c-4.42 0-8 3.58-8 8s3.58 8 8 8 8-3.58 8-8-3.58-8-8-8zm3.409 4.806 1.41 1.419-6.384 6.344-.614-.618-2.804-2.804 1.415-1.414 2.009 2.009 4.968-4.936z" id="a"/>
    </defs>
    <g fill="none" fill-rule="evenodd">
        <path d="M0 0h24v24H0z"/>
        <use fill="#323232" xlink:href="#a"/>
    </g>
</svg>
