<svg width="24" height="25" viewBox="0 0 24 25" fill="none" xmlns="http://www.w3.org/2000/svg">
    <path fill-rule="evenodd" clip-rule="evenodd" d="M11.99 2.18945C6.47 2.18945 2 6.66945 2 12.1895C2 17.7095 6.47 22.1895 11.99 22.1895C17.52 22.1895 22 17.7095 22 12.1895C22 6.66945 17.52 2.18945 11.99 2.18945ZM10.4417 13.9322L15.4089 8.99559L16.8187 10.4142L10.4351 16.7584L9.73129 16.0502L7.01734 13.3363L8.43156 11.9221L10.4417 13.9322Z" fill="currentColor"/>
    <mask id="mask0_3109_28339" style="mask-type:alpha" maskUnits="userSpaceOnUse" x="2" y="2" width="20" height="21">
        <path fill-rule="evenodd" clip-rule="evenodd" d="M11.99 2.18945C6.47 2.18945 2 6.66945 2 12.1895C2 17.7095 6.47 22.1895 11.99 22.1895C17.52 22.1895 22 17.7095 22 12.1895C22 6.66945 17.52 2.18945 11.99 2.18945ZM10.4417 13.9322L15.4089 8.99559L16.8187 10.4142L10.4351 16.7584L9.73129 16.0502L7.01734 13.3363L8.43156 11.9221L10.4417 13.9322Z" fill="white"/>
    </mask>
    <g mask="url(#mask0_3109_28339)"></g>
</svg>
